<?xml version="1.0" encoding="utf-8"?>
<!-- Generator: Adobe Illustrator 21.1.0, SVG Export Plug-In . SVG Version: 6.00 Build 0)  -->
<svg version="1.1" id="Layer_1" xmlns="http://www.w3.org/2000/svg" xmlns:xlink="http://www.w3.org/1999/xlink" x="0px" y="0px"
	 viewBox="0 0 835 227" style="enable-background:new 0 0 835 227;" xml:space="preserve">
<style type="text/css">
	.st0{fill:#FFFFFF;}
	.st1{fill:#FFFFFF;stroke:#231F20;stroke-width:4;stroke-miterlimit:10;}
</style>
<g>
	<g>
		<path class="st0" d="M809,205.1c0,0.6-0.5,1-1,1H23.8c-0.6,0-1-0.4-1-1v-179c0-0.6,0.4-1,1-1H808c0.5,0,1,0.4,1,1V205.1z
			 M26.8,201.4c0,0.5,0.5,1,1,1H804c0.5,0,1-0.5,1-1V29.8c0-0.5-0.5-1-1-1H27.8c-0.5,0-1,0.5-1,1V201.4z"/>
	</g>
	<rect x="229.8" y="26.1" class="st0" width="4.3" height="179"/>
	<g>
		<path class="st0" d="M66.2,64.4c2,5.5,4.3,11,6.9,16.3c1.3,2.6,2.7,5.3,4.3,7.8c1.6,2.5,3.3,5,5.8,6.6c-2.6-1.5-4.5-3.9-6.3-6.3
			c-1.8-2.4-3.4-4.9-4.9-7.5c-3-5.2-5.7-10.5-8.2-16L66.2,64.4z"/>
		<path class="st0" d="M65.8,85.2c-1.2,2.6-2.6,5.2-3.9,7.9l0-0.4c1.5,1.7,2.9,3.5,4.3,5.2l4.3,5.2l-0.5-0.3l3.2,0.5l0.7,0.1l0,0.7
			l0,2.7l-0.3-0.6l2.4,2.2l-1.3,0.1c3-3.4,6.1-6.7,9.3-9.9c3.2-3.2,6.5-6.4,9.9-9.3c3.4-3,6.9-5.9,10.6-8.5c0.9-0.7,1.8-1.3,2.8-1.9
			c1-0.6,1.9-1.3,2.9-1.8c1-0.6,2-1.2,3-1.7l3.1-1.5c-3.9,2.2-7.5,5-11,7.8c-3.5,2.8-6.8,5.9-10.1,8.9c-6.5,6.2-12.9,12.6-18.9,19.2
			l-0.6,0.7l-0.7-0.6l-2.4-2.3l-0.3-0.3l0-0.4l0-2.7l0.7,0.8l-3.1-0.7l-0.3-0.1l-0.2-0.2l-4-5.4c-1.3-1.8-2.7-3.6-4-5.5l-0.2-0.2
			l0.1-0.2C62.8,90.1,64.3,87.6,65.8,85.2z"/>
		<path class="st0" d="M115.6,74.1c-1.5-2.1-3-4.2-4.4-6.3c-1.4-2.1-2.8-4.3-4.2-6.4c-1.4-2.2-2.7-4.3-4.1-6.5l-2-3.3l-1-1.7
			L99.5,49l-0.2-0.4l-0.1-0.2l-0.1-0.1c0,0.1,0.3,0.2,0.4,0.1l0.3-0.1c-2.5,1.1-5,2.1-7.5,3.2c-2.5,1.1-4.9,2.3-7.4,3.6
			c-4.8,2.5-9.6,5.2-14.4,7.7c-4.8,2.6-9.6,5.1-14.2,7.9c-0.6,0.3-1.1,0.7-1.6,1.1c-0.2,0.2-0.5,0.4-0.6,0.5c0,0,0,0.1,0,0l0,0
			c0-0.1,0-0.1,0-0.2c0-0.1,0-0.1,0-0.2l0,0.1l0.1,0.4c0.3,1.2,0.8,2.5,1.2,3.8c0.9,2.6,1.9,5.1,2.8,7.7l-0.6-0.4l1.1,0l0.7,0
			l-0.1,0.6l-0.3,3l-0.5-0.5l2.1,0.1l0.2,0l0.1,0.1l1.5,2.1L62.3,89l1.2,0.3l0,0.2l-1.3-0.1l-0.1,0l-0.1-0.1l-1.8-1.9l0.3,0.1
			l-2.1,0.1l-0.5,0l0-0.5l0-3l0.6,0.6l-1.1,0l-0.4,0L57,84.5c-1.2-2.5-2.2-5-3.3-7.5c-0.5-1.3-1-2.5-1.4-3.9l-0.1-0.6l0-0.1
			c0-0.1,0-0.2,0-0.3c0-0.1,0-0.2,0.1-0.3l0.1-0.2c0.1-0.2,0.2-0.3,0.3-0.4c0.3-0.4,0.6-0.6,0.9-0.9c0.6-0.5,1.2-0.8,1.8-1.2
			c4.7-2.9,9.6-5.3,14.5-7.7c4.9-2.4,9.9-4.5,14.9-6.8c2.5-1.1,4.9-2.3,7.4-3.5c2.4-1.2,4.8-2.5,7.3-3.8l0.1-0.1l0.1,0
			c0.2,0,0.5,0.2,0.6,0.3l0.1,0.1l0.2,0.2l0.3,0.4l0.6,0.8l1.1,1.6c0.7,1.1,1.4,2.1,2.1,3.2c1.4,2.2,2.7,4.4,4,6.6
			c1.3,2.2,2.5,4.5,3.8,6.7c1.3,2.2,2.4,4.5,3.6,6.8L115.6,74.1z"/>
		<path class="st0" d="M82.1,55.9c0-0.1-0.3-3,2.1-5.3c2.6-2.5,7.1-3.3,13.4-2.5l-0.2,1.3c-5.8-0.8-10.1,0-12.3,2.2
			c-1.9,1.9-1.7,4.2-1.7,4.2L82.1,55.9z"/>
		<path class="st0" d="M183.3,183c-2.1,0-3.7-0.7-3.8-0.7c-14.5-3.6-43.7-40.1-44.9-41.7l1-0.8c0.3,0.4,30.1,37.8,44.3,41.3
			c0.3,0.1,6.2,2.6,9.1-2.8c0-0.2,2-6.8-3.5-9.4c-6.1-2.9-27.9-18.5-40.5-40.3l1.1-0.7c12.5,21.5,33.9,36.9,39.9,39.8
			c6.5,3.1,4.1,11,4.1,11.1C188.4,182.2,185.6,183,183.3,183z"/>
		
			<rect x="122.2" y="72.9" transform="matrix(0.8509 -0.5254 0.5254 0.8509 -30.5267 78.4347)" class="st0" width="1.3" height="40.2"/>
		
			<rect x="110.3" y="82.3" transform="matrix(0.8149 -0.5796 0.5796 0.8149 -39.6165 83.4876)" class="st0" width="1.3" height="42.9"/>
		<path class="st0" d="M137.9,141.1c3.1,3,6,6.2,9,9.3l4.4,4.8l2.2,2.4c0.7,0.8,1.4,1.6,2.2,2.3c-1.7-1.3-3.2-2.9-4.8-4.4
			c-1.5-1.5-3-3.1-4.5-4.7C143.5,147.7,140.6,144.5,137.9,141.1z"/>
		<path class="st0" d="M117,89.4c2.4,3.6,4.7,7.3,7.1,10.9c1.2,1.8,2.4,3.6,3.6,5.4c1.2,1.8,2.5,3.5,4,5.1c-1.7-1.4-3-3.1-4.4-4.8
			c-1.3-1.7-2.5-3.5-3.8-5.3C121.2,97,118.9,93.3,117,89.4z"/>
		<path class="st0" d="M167.8,154.9c1.2,1.8,2.5,3.4,4,4.9c1.5,1.5,3,2.9,4.7,4.1c1.7,1.3,3.4,2.4,5.3,3.3c1.8,1,3.8,1.8,5.8,2.5
			c-1-0.3-2-0.5-3-0.9c-1-0.4-2-0.7-2.9-1.2c-1.9-0.9-3.7-2-5.5-3.3c-1.7-1.3-3.3-2.7-4.7-4.3C170,158.5,168.7,156.7,167.8,154.9z"
			/>
		<path class="st0" d="M100.1,87.8c0.3-0.3,0.8-0.4,1.2-0.3c0.4,0.1,0.8,0.2,1.2,0.5c0.7,0.4,1.3,1.1,1.9,1.7c1.1,1.3,2.1,2.7,3,4.1
			c0.8,1.5,1.7,2.9,2.4,4.4c0.7,1.5,1.4,3.1,2,4.6c-0.9-1.4-1.6-2.9-2.4-4.4c-0.8-1.5-1.6-2.9-2.5-4.3c-0.8-1.4-1.8-2.8-2.8-4.1
			c-0.5-0.6-1.1-1.3-1.7-1.7C101.7,87.7,100.8,87.2,100.1,87.8z"/>
		<path class="st0" d="M178.6,180c1.6,0.5,3.2,0.8,4.8,0.7c0.8,0,1.6-0.2,2.3-0.5c0.8-0.3,1.4-0.7,2.1-1.2c-0.5,0.7-1.1,1.3-1.9,1.7
			c-0.8,0.4-1.6,0.7-2.5,0.7c-0.9,0-1.7,0-2.6-0.3C180.1,180.8,179.3,180.4,178.6,180z"/>
		<path class="st0" d="M143.9,130.6c0.4,2.1,1.2,4.1,2.2,6c1,1.9,2.2,3.7,3.6,5.2c1.4,1.6,2.9,3,4.7,4.3c0.8,0.7,1.8,1.2,2.7,1.8
			c0.9,0.6,1.9,1,2.8,1.6c-1-0.4-2-0.8-3-1.3c-0.9-0.5-1.9-1-2.8-1.6l-1.3-0.9l-1.2-1c-0.4-0.3-0.8-0.7-1.2-1.1
			c-0.4-0.4-0.8-0.8-1.1-1.2c-1.4-1.6-2.6-3.5-3.5-5.4C144.7,134.8,144,132.7,143.9,130.6z"/>
		<path class="st0" d="M159.2,158.6c1.7,0.5,3.4,1.3,5,2.1c1.6,0.9,3.1,1.9,4.6,3c1.4,1.2,2.7,2.5,3.8,3.9c1.1,1.5,2,3.1,2.6,4.8
			c-0.8-1.6-1.8-3.1-2.9-4.5c-1.2-1.3-2.4-2.6-3.8-3.7c-1.4-1.1-2.9-2.1-4.4-3.1C162.4,160.2,160.8,159.3,159.2,158.6z"/>
		<path class="st0" d="M84.7,53.6c0.4-0.7,0.9-1.3,1.5-1.9c0.6-0.6,1.2-1,2-1.4c0.7-0.4,1.5-0.6,2.3-0.7c0.8-0.1,1.6,0,2.4,0.2
			c-0.8,0.1-1.6,0.1-2.3,0.3c-0.7,0.2-1.4,0.4-2.1,0.8C87.1,51.6,85.9,52.5,84.7,53.6z"/>
		<path class="st0" d="M108.3,93.9c0.8,1.3,1.6,2.5,2.4,3.7c0.9,1.2,1.7,2.4,2.7,3.5c1.9,2.2,4.1,4.2,6.8,5.4c-1.5-0.3-2.8-1-4-1.9
			c-1.2-0.9-2.3-1.9-3.3-3.1c-1-1.1-1.8-2.3-2.6-3.6C109.6,96.6,108.9,95.3,108.3,93.9z"/>
		<path class="st0" d="M173,173c1.2,0.9,2.3,1.8,3.5,2.5c0.6,0.4,1.2,0.7,1.8,0.9c0.6,0.2,1.3-0.2,1.6-0.9c0,0.2-0.1,0.4-0.2,0.5
			c-0.1,0.2-0.2,0.3-0.3,0.5c-0.2,0.1-0.4,0.2-0.6,0.3c-0.2,0-0.4,0.1-0.6,0c-0.8-0.1-1.5-0.5-2.1-0.8c-0.6-0.4-1.2-0.9-1.7-1.4
			C173.9,174.1,173.4,173.6,173,173z"/>
		<path class="st0" d="M108.3,80c0.4-0.6,1.1-1,1.9-1.1c0.8-0.1,1.6,0.2,2.2,0.6c0.6,0.4,1.1,1,1.5,1.6c0.2,0.3,0.4,0.6,0.6,0.9
			c0.1,0.3,0.3,0.7,0.4,1c-0.5-0.5-0.9-1.1-1.4-1.6c-0.5-0.5-1-1-1.5-1.4c-0.5-0.4-1.2-0.6-1.8-0.6C109.6,79.4,108.9,79.6,108.3,80z
			"/>
		<path class="st0" d="M113.1,82.4c0.9,0.6,1.6,1.4,2.2,2.4c0.3,0.5,0.4,1,0.5,1.6c0.1,0.6,0,1.1-0.1,1.7l0,0
			c-0.2,1.1-0.1,2.4,0.3,3.5c0.2,0.6,0.5,1.1,0.9,1.6c0.3,0.5,0.8,0.9,1.3,1.3c-0.6-0.3-1.1-0.6-1.5-1.1c-0.5-0.4-0.8-1-1.1-1.6
			c-0.3-0.6-0.4-1.2-0.5-1.9c-0.1-0.6-0.1-1.3,0.1-1.9l0,0l0,0c0.3-0.9,0.2-2-0.2-2.9C114.5,84,113.9,83.1,113.1,82.4z"/>
		<path class="st0" d="M117.4,106.2c1.3,0.4,2.6,0.9,3.6,1.9c0.5,0.4,1,1.2,0.9,2c-0.1,0.7-0.2,1.3-0.2,2c-0.1,1.3,0.1,2.6,0.6,3.8
			c0.3,0.6,0.7,1.1,1.2,1.4c0.3,0.2,0.6,0.2,0.9,0.2c0.3,0,0.6-0.2,0.8-0.5c-0.2,0.3-0.4,0.6-0.8,0.7c-0.4,0.1-0.7,0-1.1-0.1
			c-0.7-0.3-1.2-0.9-1.5-1.4c-0.7-1.2-0.9-2.7-0.8-4.1c0-0.7,0.1-1.4,0.3-2c0.1-0.5-0.2-1.1-0.6-1.5
			C119.8,107.5,118.6,106.8,117.4,106.2z"/>
		<path class="st0" d="M117.4,100.7c0.9,0.2,1.8,0.5,2.7,1c0.8,0.4,1.6,1,2.3,1.6c0.7,0.7,1.3,1.5,1.7,2.4c0.3,0.9,0.4,1.9,0.3,2.8
			c-0.1-0.9-0.3-1.8-0.7-2.6c-0.4-0.8-1-1.5-1.6-2.1c-0.6-0.6-1.4-1.2-2.1-1.7C119.1,101.6,118.3,101.1,117.4,100.7z"/>
		<path class="st0" d="M149.4,147c2.2,0.5,4.2,1.4,6.2,2.5c1.9,1.1,3.8,2.5,5.2,4.2c-0.9-0.6-1.8-1.3-2.7-1.9
			c-0.9-0.6-1.8-1.2-2.8-1.7C153.4,149,151.4,148,149.4,147z"/>
		<polygon class="st0" points="91.2,181 89.7,179.7 179.7,78.8 181.1,71.9 173.7,73.7 83.9,173.8 82.4,172.5 172.7,72 183.6,69.3 
			181.5,79.8 181.3,80 		"/>
		<path class="st0" d="M97.5,184l-0.5-0.1c-13.5-2.6-17-15.2-17.1-15.3l-0.1-0.5l97-107.2l26-11.7l-10.2,28l-0.1,0.1L97.5,184z
			 M81.9,168.5c0.8,2.2,4.4,11,14.8,13.3l94.1-105.7l8.4-23.3l-21.4,9.6L81.9,168.5z"/>
		<path class="st1" d="M173.2,72.8"/>
		<rect x="180.5" y="77.8" transform="matrix(0.9937 -0.112 0.112 0.9937 -7.6534 21.2633)" class="st0" width="9.8" height="2"/>
		
			<rect x="169.6" y="67.4" transform="matrix(0.2238 -0.9746 0.9746 0.2238 68.6293 222.8497)" class="st0" width="9.2" height="2"/>
		
			<rect x="194.3" y="52.8" transform="matrix(0.6769 -0.7361 0.7361 0.6769 22.8702 162.8192)" class="st0" width="5.2" height="5.1"/>
	</g>
	<g>
		<path class="st0" d="M330.6,142.1c0.5,0.5,0.7,1.1,0.7,1.7c0,0.7-0.2,1.3-0.7,1.8c-0.5,0.4-1.1,0.7-1.7,0.7h-44.5
			c-0.7,0-1.3-0.2-1.8-0.7c-0.4-0.5-0.7-1-0.7-1.7v-80c0-0.6,0.2-1.2,0.7-1.7c0.5-0.5,1.1-0.7,1.8-0.7c0.7,0,1.3,0.2,1.8,0.7
			c0.5,0.5,0.7,1.1,0.7,1.7v77.6h41.8C329.5,141.3,330.1,141.6,330.6,142.1z"/>
		<path class="st0" d="M349.5,145.5c-0.5,0.5-1.1,0.7-1.7,0.7c-0.8,0-1.4-0.2-1.9-0.7c-0.4-0.5-0.7-1.1-0.7-1.8V63.8
			c0-0.7,0.2-1.3,0.7-1.8c0.5-0.5,1.1-0.7,1.8-0.7c0.7,0,1.3,0.2,1.8,0.7c0.5,0.5,0.7,1.1,0.7,1.8v79.8
			C350.3,144.4,350,145,349.5,145.5z"/>
		<path class="st0" d="M437.7,62c0.4,0.4,0.6,1,0.6,1.6v79.9c0,0.9-0.2,1.6-0.7,2c-0.5,0.4-1.1,0.7-1.8,0.7c-0.8,0-1.5-0.3-1.9-1
			l-54.6-74.6v73.5c0,0.6-0.2,1.1-0.7,1.5c-0.4,0.4-1,0.6-1.6,0.6c-0.7,0-1.3-0.2-1.7-0.6s-0.6-0.9-0.6-1.5V63.7
			c0-0.8,0.2-1.4,0.7-1.8c0.4-0.4,0.9-0.6,1.5-0.6c0.7,0,1.3,0.3,1.8,0.8l55.1,75.1V63.6c0-0.6,0.2-1.2,0.7-1.6
			c0.4-0.4,1-0.7,1.6-0.7C436.7,61.3,437.3,61.5,437.7,62z"/>
		<path class="st0" d="M526.4,70.3c0,0.6-0.2,1.2-0.5,1.6c-0.5,0.6-1.1,1-1.8,1c-0.3,0-0.8-0.2-1.5-0.5c-7.5-5.1-15.5-7.6-23.9-7.6
			c-6.8,0-13,1.7-18.7,5c-5.7,3.4-10.2,8-13.5,13.9c-3.3,5.9-5,12.6-5,20.1c0,7.4,1.7,14.1,5,20.1c3.3,5.9,7.8,10.6,13.5,13.9
			c5.7,3.4,11.9,5,18.7,5c8.5,0,16.4-2.5,23.8-7.5c0.4-0.3,0.9-0.5,1.5-0.5c0.8,0,1.5,0.3,1.9,1c0.3,0.4,0.5,0.9,0.5,1.5
			c0,0.8-0.3,1.5-1,1.9c-3.2,2.3-7.2,4.2-12.2,5.8c-5,1.6-9.8,2.4-14.5,2.4c-7.7,0-14.8-1.9-21.2-5.7c-6.5-3.8-11.6-9-15.4-15.7
			c-3.8-6.7-5.7-14.1-5.7-22.3c0-8.2,1.9-15.6,5.7-22.3c3.8-6.7,8.9-11.9,15.4-15.7c6.5-3.8,13.5-5.7,21.2-5.7
			c4.8,0,9.6,0.7,14.1,2.2c4.6,1.5,8.7,3.5,12.4,6.1C526.1,68.9,526.4,69.5,526.4,70.3z"/>
		<path class="st0" d="M612.6,126.4c-3.4,6.6-8.2,11.8-14.4,15.5c-6.1,3.7-13.1,5.5-21,5.5c-7.8,0-14.8-1.8-21-5.5
			c-6.1-3.7-10.9-8.8-14.4-15.5c-3.4-6.6-5.2-14.2-5.2-22.7s1.7-16,5.2-22.7c3.4-6.6,8.2-11.8,14.4-15.5c6.1-3.7,13.1-5.5,21-5.5
			c7.8,0,14.8,1.8,21,5.5c6.1,3.7,10.9,8.8,14.4,15.5c3.4,6.6,5.2,14.2,5.2,22.7S616,119.8,612.6,126.4z M608.2,83.5
			c-3-5.9-7.2-10.5-12.6-13.7c-5.4-3.2-11.5-4.9-18.4-4.9c-6.9,0-13,1.6-18.4,4.9c-5.4,3.2-9.6,7.8-12.6,13.7
			c-3,5.9-4.5,12.7-4.5,20.3c0,7.6,1.5,14.4,4.5,20.3c3,5.9,7.2,10.5,12.6,13.7c5.4,3.2,11.5,4.9,18.4,4.9c6.9,0,13-1.6,18.4-4.9
			c5.4-3.2,9.6-7.8,12.6-13.7c3-5.9,4.5-12.7,4.5-20.3C612.7,96.1,611.2,89.4,608.2,83.5z"/>
		<path class="st0" d="M684.6,142.1c0.5,0.5,0.7,1.1,0.7,1.7c0,0.7-0.2,1.3-0.7,1.8c-0.5,0.4-1.1,0.7-1.7,0.7h-44.5
			c-0.7,0-1.3-0.2-1.8-0.7c-0.4-0.5-0.7-1-0.7-1.7v-80c0-0.6,0.2-1.2,0.7-1.7c0.5-0.5,1.1-0.7,1.8-0.7c0.7,0,1.3,0.2,1.8,0.7
			c0.5,0.5,0.7,1.1,0.7,1.7v77.6h41.8C683.5,141.3,684.1,141.6,684.6,142.1z"/>
		<path class="st0" d="M762.3,62c0.4,0.4,0.6,1,0.6,1.6v79.9c0,0.9-0.2,1.6-0.7,2c-0.5,0.4-1.1,0.7-1.8,0.7c-0.8,0-1.5-0.3-1.9-1
			l-54.6-74.6v73.5c0,0.6-0.2,1.1-0.7,1.5c-0.4,0.4-1,0.6-1.6,0.6c-0.7,0-1.3-0.2-1.7-0.6s-0.6-0.9-0.6-1.5V63.7
			c0-0.8,0.2-1.4,0.7-1.8c0.4-0.4,0.9-0.6,1.5-0.6c0.7,0,1.3,0.3,1.8,0.8l55.1,75.1V63.6c0-0.6,0.2-1.2,0.7-1.6
			c0.4-0.4,1-0.7,1.6-0.7C761.4,61.3,761.9,61.5,762.3,62z"/>
	</g>
	<g>
		<g>
			<path class="st0" d="M468.8,164.6c0,0.1,0,0.2-0.1,0.3c-0.1,0.1-0.2,0.2-0.4,0.2c-0.1,0-0.2,0-0.3-0.1c-1.5-1-3.2-1.6-4.9-1.6
				c-1.4,0-2.7,0.3-3.8,1c-1.2,0.7-2.1,1.6-2.8,2.9c-0.7,1.2-1,2.6-1,4.1c0,1.5,0.3,2.9,1,4.1c0.7,1.2,1.6,2.2,2.8,2.9
				c1.2,0.7,2.5,1,3.8,1c1.7,0,3.4-0.5,4.9-1.5c0.1-0.1,0.2-0.1,0.3-0.1c0.2,0,0.3,0.1,0.4,0.2c0.1,0.1,0.1,0.2,0.1,0.3
				c0,0.2-0.1,0.3-0.2,0.4c-0.6,0.5-1.5,0.9-2.5,1.2c-1,0.3-2,0.5-3,0.5c-1.6,0-3-0.4-4.4-1.2c-1.3-0.8-2.4-1.9-3.2-3.2
				c-0.8-1.4-1.2-2.9-1.2-4.6c0-1.7,0.4-3.2,1.2-4.6c0.8-1.4,1.8-2.4,3.2-3.2c1.3-0.8,2.8-1.2,4.4-1.2c1,0,2,0.1,2.9,0.4
				c0.9,0.3,1.8,0.7,2.6,1.2C468.7,164.3,468.8,164.4,468.8,164.6z"/>
			<path class="st0" d="M486.5,176.1c-0.7,1.4-1.7,2.4-3,3.2c-1.3,0.8-2.7,1.1-4.3,1.1c-1.6,0-3-0.4-4.3-1.1c-1.3-0.8-2.2-1.8-3-3.2
				c-0.7-1.4-1.1-2.9-1.1-4.7c0-1.7,0.4-3.3,1.1-4.7c0.7-1.4,1.7-2.4,3-3.2c1.3-0.8,2.7-1.1,4.3-1.1c1.6,0,3,0.4,4.3,1.1
				c1.3,0.8,2.2,1.8,3,3.2c0.7,1.4,1.1,2.9,1.1,4.7C487.5,173.2,487.2,174.7,486.5,176.1z M485.5,167.3c-0.6-1.2-1.5-2.2-2.6-2.8
				c-1.1-0.7-2.4-1-3.8-1c-1.4,0-2.7,0.3-3.8,1c-1.1,0.7-2,1.6-2.6,2.8c-0.6,1.2-0.9,2.6-0.9,4.2c0,1.6,0.3,2.9,0.9,4.2
				c0.6,1.2,1.5,2.2,2.6,2.8c1.1,0.7,2.4,1,3.8,1c1.4,0,2.7-0.3,3.8-1c1.1-0.7,2-1.6,2.6-2.8c0.6-1.2,0.9-2.6,0.9-4.2
				C486.5,169.9,486.2,168.5,485.5,167.3z"/>
			<path class="st0" d="M501.2,179.3c0.1,0.1,0.1,0.2,0.1,0.3c0,0.1,0,0.3-0.1,0.4c-0.1,0.1-0.2,0.1-0.3,0.1h-9.1
				c-0.1,0-0.3,0-0.4-0.1c-0.1-0.1-0.1-0.2-0.1-0.3v-16.4c0-0.1,0-0.2,0.1-0.3c0.1-0.1,0.2-0.1,0.4-0.1c0.1,0,0.3,0,0.4,0.1
				c0.1,0.1,0.1,0.2,0.1,0.3v15.9h8.6C501,179.1,501.1,179.2,501.2,179.3z"/>
			<path class="st0" d="M514.2,179.3c0.1,0.1,0.1,0.2,0.1,0.3c0,0.1,0,0.3-0.1,0.4c-0.1,0.1-0.2,0.1-0.3,0.1h-9.1
				c-0.1,0-0.3,0-0.4-0.1c-0.1-0.1-0.1-0.2-0.1-0.3v-16.4c0-0.1,0-0.2,0.1-0.3c0.1-0.1,0.2-0.1,0.4-0.1c0.1,0,0.3,0,0.4,0.1
				c0.1,0.1,0.1,0.2,0.1,0.3v15.9h8.6C514,179.1,514.1,179.2,514.2,179.3z"/>
			<path class="st0" d="M527.5,179.3c0.1,0.1,0.1,0.2,0.1,0.3c0,0.1,0,0.3-0.1,0.4c-0.1,0.1-0.2,0.1-0.3,0.1h-9.4
				c-0.1,0-0.2,0-0.3-0.1c-0.1-0.1-0.1-0.2-0.1-0.3v-16.4c0-0.1,0-0.2,0.1-0.3c0.1-0.1,0.2-0.1,0.3-0.1h9.4c0.1,0,0.2,0,0.3,0.1
				c0.1,0.1,0.1,0.2,0.1,0.3c0,0.1,0,0.3-0.1,0.4s-0.2,0.1-0.3,0.1h-8.8v6.9h7.7c0.1,0,0.2,0,0.3,0.1s0.1,0.2,0.1,0.3
				c0,0.1,0,0.3-0.1,0.4c-0.1,0.1-0.2,0.1-0.3,0.1h-7.7v7.5h8.8C527.3,179.1,527.4,179.2,527.5,179.3z"/>
			<path class="st0" d="M544.5,164.6c0,0.1,0,0.2-0.1,0.3c-0.1,0.1-0.2,0.2-0.4,0.2c-0.1,0-0.2,0-0.3-0.1c-1.5-1-3.2-1.6-4.9-1.6
				c-1.4,0-2.7,0.3-3.8,1c-1.2,0.7-2.1,1.6-2.8,2.9c-0.7,1.2-1,2.6-1,4.1c0,1.5,0.3,2.9,1,4.1c0.7,1.2,1.6,2.2,2.8,2.9
				c1.2,0.7,2.5,1,3.8,1c1.7,0,3.4-0.5,4.9-1.5c0.1-0.1,0.2-0.1,0.3-0.1c0.2,0,0.3,0.1,0.4,0.2c0.1,0.1,0.1,0.2,0.1,0.3
				c0,0.2-0.1,0.3-0.2,0.4c-0.6,0.5-1.5,0.9-2.5,1.2c-1,0.3-2,0.5-3,0.5c-1.6,0-3-0.4-4.4-1.2c-1.3-0.8-2.4-1.9-3.2-3.2
				c-0.8-1.4-1.2-2.9-1.2-4.6c0-1.7,0.4-3.2,1.2-4.6c0.8-1.4,1.8-2.4,3.2-3.2c1.3-0.8,2.8-1.2,4.4-1.2c1,0,2,0.1,2.9,0.4
				c0.9,0.3,1.8,0.7,2.6,1.2C544.4,164.3,544.5,164.4,544.5,164.6z"/>
			<path class="st0" d="M559.2,162.8c0.1,0.1,0.1,0.2,0.1,0.3c0,0.1,0,0.3-0.1,0.3c-0.1,0.1-0.2,0.1-0.4,0.1h-5.6v16
				c0,0.1,0,0.2-0.1,0.3c-0.1,0.1-0.2,0.1-0.3,0.1c-0.1,0-0.3,0-0.4-0.1c-0.1-0.1-0.1-0.2-0.1-0.3v-16h-5.6c-0.1,0-0.2,0-0.3-0.1
				s-0.1-0.2-0.1-0.3c0-0.1,0-0.2,0.1-0.3c0.1-0.1,0.2-0.1,0.3-0.1h12.1C559,162.7,559.1,162.8,559.2,162.8z"/>
			<path class="st0" d="M563.6,180c-0.1,0.1-0.2,0.1-0.3,0.1c-0.2,0-0.3,0-0.4-0.1c-0.1-0.1-0.1-0.2-0.1-0.4v-16.4
				c0-0.1,0-0.3,0.1-0.4c0.1-0.1,0.2-0.1,0.4-0.1c0.1,0,0.3,0,0.4,0.1c0.1,0.1,0.1,0.2,0.1,0.4v16.4
				C563.7,179.8,563.7,179.9,563.6,180z"/>
			<path class="st0" d="M581.7,162.8c0.1,0.1,0.1,0.2,0.1,0.3c0,0.1,0,0.1,0,0.2l-6.8,16.4c-0.1,0.2-0.3,0.3-0.5,0.3
				c-0.1,0-0.2,0-0.3-0.1c-0.1-0.1-0.2-0.1-0.2-0.2l-6.8-16.3c0-0.1-0.1-0.2-0.1-0.3c0-0.1,0-0.2,0.1-0.3c0.1-0.1,0.2-0.1,0.3-0.1
				c0.2,0,0.4,0.1,0.5,0.4l6.3,15.2l6.4-15.3c0.1-0.2,0.3-0.3,0.5-0.3C581.5,162.7,581.6,162.8,581.7,162.8z"/>
			<path class="st0" d="M595.4,179.3c0.1,0.1,0.1,0.2,0.1,0.3c0,0.1,0,0.3-0.1,0.4c-0.1,0.1-0.2,0.1-0.3,0.1h-9.4
				c-0.1,0-0.2,0-0.3-0.1c-0.1-0.1-0.1-0.2-0.1-0.3v-16.4c0-0.1,0-0.2,0.1-0.3c0.1-0.1,0.2-0.1,0.3-0.1h9.4c0.1,0,0.2,0,0.3,0.1
				c0.1,0.1,0.1,0.2,0.1,0.3c0,0.1,0,0.3-0.1,0.4s-0.2,0.1-0.3,0.1h-8.8v6.9h7.7c0.1,0,0.2,0,0.3,0.1s0.1,0.2,0.1,0.3
				c0,0.1,0,0.3-0.1,0.4c-0.1,0.1-0.2,0.1-0.3,0.1h-7.7v7.5h8.8C595.2,179.1,595.3,179.2,595.4,179.3z"/>
		</g>
		<g>
			<path class="st0" d="M727.2,171.4c0.5,0,1,0.4,1,1v0.6c0,0.6-0.5,1-1,1H612.1c-0.6,0-1-0.4-1-1v-0.6c0-0.6,0.4-1,1-1H727.2z"/>
		</g>
		<g>
			<path class="st0" d="M432.8,171.4c0.5,0,1,0.4,1,1v0.6c0,0.6-0.5,1-1,1H317.7c-0.5,0-1-0.4-1-1v-0.6c0-0.6,0.5-1,1-1H432.8z"/>
		</g>
	</g>
</g>
</svg>
